<?xml version="1.0"?>
<svg xmlns="http://www.w3.org/2000/svg" xmlns:xlink="http://www.w3.org/1999/xlink" version="1.1" id="Capa_1" x="0px" y="0px" viewBox="0 0 512 512" style="enable-background:new 0 0 512 512;" xml:space="preserve" width="512px" height="512px" class=""><g><g>
	<g>
		<path d="M117.337,60.41C106.082,29.555,72.04,13.114,40.433,24.551C9.254,35.883-7.764,70.261,3.574,101.455    c11.317,31.079,46.9,47.159,77.904,35.859C112.782,125.894,128.631,91.481,117.337,60.41z" data-original="#000000" class="active-path" data-old_color="#7E7676" fill="#918787"/>
	</g>
</g><g>
	<g>
		<path d="M472.449,24.551c-31.417-11.393-65.594,4.852-76.904,35.859c-11.364,31.263,4.739,65.557,35.874,76.904    c31.24,11.409,65.684-5.085,76.89-35.859C519.646,70.261,503.63,35.883,472.449,24.551z" data-original="#000000" class="active-path" data-old_color="#7E7676" fill="#918787"/>
	</g>
</g><g>
	<g>
		<path d="M388.938,307.006c-4.966-6.592-14.355-7.939-21.006-2.988l-62.15,46.597C294.9,365.922,276.115,376,255.941,376    c-20.174,0-37.961-10.078-48.843-25.386l-62.148-46.611c-6.65-4.98-16.069-3.618-21.006,3.003    c-4.956,6.588-3.664,16.026,2.988,20.977l84.917,63.706c2.769,2.065,4.717,5.01,5.552,8.364L237.645,512h36.592l21.244-111.947    c0.835-3.354,2.783-6.299,5.552-8.364l84.917-63.691C392.624,322.999,393.878,313.573,388.938,307.006z" data-original="#000000" class="active-path" data-old_color="#7E7676" fill="#918787"/>
	</g>
</g><g>
	<g>
		<path d="M255.941,286c-16.538,0-30,13.462-30,30c0,16.538,13.462,30,30,30c16.538,0,31-13.462,31-30    C286.941,299.462,272.479,286,255.941,286z" data-original="#000000" class="active-path" data-old_color="#7E7676" fill="#918787"/>
	</g>
</g><g>
	<g>
		<path d="M493.748,238.773c-13.14-32.285-39.463-58.641-72.217-70.55c-32.798-11.938-69.199-9.404-100.02,6.855    c-30.82,16.289-54.423,46-63.021,79.765l-0.352,1.379c28.508,1.053,52.899,21.942,57.746,49.332l34.059-25.545    c19.849-14.854,48.135-10.825,62.988,8.979c14.922,19.886,10.921,48.073-8.994,63.018l-80.654,60.483L304.953,512h93.419    c5.757,0,11.016-3.296,13.521-8.496l78.735-164.521C505.745,307.577,506.888,271.058,493.748,238.773z" data-original="#000000" class="active-path" data-old_color="#7E7676" fill="#918787"/>
	</g>
</g><g>
	<g>
		<path d="M162.953,280.009l34.045,25.54c4.849-27.387,28.24-48.274,56.746-49.327l-0.352-1.379    c-8.599-33.765-31.201-63.476-62.021-79.765c-30.791-16.26-67.251-18.779-100.02-6.855    c-32.754,11.909-60.077,38.266-73.217,70.551c-13.14,32.285-11.997,68.804,3.12,100.21l79.735,164.521    c2.506,5.199,7.764,8.495,13.521,8.495h93.419l-18.331-99.511l-80.654-60.498c-19.73-14.775-24.045-42.945-8.994-63.003    C114.877,269.154,143.148,265.126,162.953,280.009z" data-original="#000000" class="active-path" data-old_color="#7E7676" fill="#918787"/>
	</g>
</g><g>
	<g>
		<path d="M294.734,0c-16.479,0-30.268,7.529-38.793,16.992C247.43,7.529,234.627,0,218.148,0c-29.282,0-52.207,24.331-52.207,55.4    c0,37.905,37.148,68.137,80.742,105.938c2.827,2.446,5.757,3.662,9.258,3.662s7.573-1.216,10.386-3.662    c38.159-32.972,80.614-65.621,80.614-105.938C346.941,24.331,324.016,0,294.734,0z" data-original="#000000" class="active-path" data-old_color="#7E7676" fill="#918787"/>
	</g>
</g></g> </svg>
